<svg width="110" height="66" viewBox="0 0 110 66" fill="none" xmlns="http://www.w3.org/2000/svg">
<path d="M38 39V37L44 45V47L38 39Z" fill="white"/>
<path d="M37 55H35V32H37V35V55Z" fill="white"/>
<path d="M64 55H62V32H64L71 42V45L64 35V55Z" fill="white"/>
<path d="M73 55H75V32H73L66 42V45L73 35V55Z" fill="white"/>
<path d="M47 32H45V55H47V32Z" fill="white"/>
<path d="M56 32H58V55H56H50V53H56V32Z" fill="white"/>
<path d="M56 55H58V32H56H50V34H56V55Z" fill="white"/>
<path d="M56 44H55H53V43H54.5H56V44Z" fill="white"/>
<path d="M4.78261 55H0L55 0L110 55H105.217L55 5.31401L4.78261 55Z" fill="white"/>
<path d="M37 29H35L55 9L75 29H73L55 11L37 29Z" fill="#439C91"/>
<path d="M35 29L37 28H73L75 29H35Z" fill="#439C91"/>
<path d="M53.6552 19H52V20.7755H53.6552V19Z" fill="white"/>
<path d="M53.6552 21.959H52V23.7345H53.6552V21.959Z" fill="white"/>
<path d="M56.9638 19H55.3086V20.7755H56.9638V19Z" fill="white"/>
<path d="M56.9638 21.959H55.3086V23.7345H56.9638V21.959Z" fill="white"/>
<path d="M35 13V20L37 18V11L35 13Z" fill="#439C91"/>
<path d="M36.508 65.048C36.188 65.048 35.892 64.996 35.62 64.892C35.352 64.784 35.118 64.634 34.918 64.442C34.722 64.246 34.568 64.018 34.456 63.758C34.344 63.498 34.288 63.212 34.288 62.9C34.288 62.588 34.344 62.302 34.456 62.042C34.568 61.782 34.724 61.556 34.924 61.364C35.124 61.168 35.358 61.018 35.626 60.914C35.898 60.806 36.194 60.752 36.514 60.752C36.838 60.752 37.136 60.808 37.408 60.92C37.684 61.028 37.918 61.19 38.11 61.406L37.72 61.784C37.56 61.616 37.38 61.492 37.18 61.412C36.98 61.328 36.766 61.286 36.538 61.286C36.302 61.286 36.082 61.326 35.878 61.406C35.678 61.486 35.504 61.598 35.356 61.742C35.208 61.886 35.092 62.058 35.008 62.258C34.928 62.454 34.888 62.668 34.888 62.9C34.888 63.132 34.928 63.348 35.008 63.548C35.092 63.744 35.208 63.914 35.356 64.058C35.504 64.202 35.678 64.314 35.878 64.394C36.082 64.474 36.302 64.514 36.538 64.514C36.766 64.514 36.98 64.474 37.18 64.394C37.38 64.31 37.56 64.182 37.72 64.01L38.11 64.388C37.918 64.604 37.684 64.768 37.408 64.88C37.136 64.992 36.836 65.048 36.508 65.048ZM40.1092 65.036C39.7892 65.036 39.5052 64.966 39.2572 64.826C39.0092 64.686 38.8132 64.494 38.6692 64.25C38.5252 64.002 38.4532 63.722 38.4532 63.41C38.4532 63.094 38.5252 62.814 38.6692 62.57C38.8132 62.326 39.0092 62.136 39.2572 62C39.5052 61.86 39.7892 61.79 40.1092 61.79C40.4252 61.79 40.7072 61.86 40.9552 62C41.2072 62.136 41.4032 62.326 41.5432 62.57C41.6872 62.81 41.7592 63.09 41.7592 63.41C41.7592 63.726 41.6872 64.006 41.5432 64.25C41.4032 64.494 41.2072 64.686 40.9552 64.826C40.7072 64.966 40.4252 65.036 40.1092 65.036ZM40.1092 64.532C40.3132 64.532 40.4952 64.486 40.6552 64.394C40.8192 64.302 40.9472 64.172 41.0392 64.004C41.1312 63.832 41.1772 63.634 41.1772 63.41C41.1772 63.182 41.1312 62.986 41.0392 62.822C40.9472 62.654 40.8192 62.524 40.6552 62.432C40.4952 62.34 40.3132 62.294 40.1092 62.294C39.9052 62.294 39.7232 62.34 39.5632 62.432C39.4032 62.524 39.2752 62.654 39.1792 62.822C39.0832 62.986 39.0352 63.182 39.0352 63.41C39.0352 63.634 39.0832 63.832 39.1792 64.004C39.2752 64.172 39.4032 64.302 39.5632 64.394C39.7232 64.486 39.9052 64.532 40.1092 64.532ZM44.2538 61.79C44.5138 61.79 44.7418 61.84 44.9378 61.94C45.1378 62.04 45.2938 62.192 45.4058 62.396C45.5178 62.6 45.5738 62.858 45.5738 63.17V65H44.9978V63.236C44.9978 62.928 44.9218 62.696 44.7698 62.54C44.6218 62.384 44.4118 62.306 44.1398 62.306C43.9358 62.306 43.7578 62.346 43.6058 62.426C43.4538 62.506 43.3358 62.624 43.2518 62.78C43.1718 62.936 43.1318 63.13 43.1318 63.362V65H42.5558V61.82H43.1078V62.678L43.0178 62.45C43.1218 62.242 43.2818 62.08 43.4978 61.964C43.7138 61.848 43.9658 61.79 44.2538 61.79ZM47.5518 65.036C47.2878 65.036 47.0358 65 46.7958 64.928C46.5598 64.856 46.3738 64.768 46.2378 64.664L46.4778 64.208C46.6138 64.3 46.7818 64.378 46.9818 64.442C47.1818 64.506 47.3858 64.538 47.5938 64.538C47.8618 64.538 48.0538 64.5 48.1698 64.424C48.2898 64.348 48.3498 64.242 48.3498 64.106C48.3498 64.006 48.3138 63.928 48.2418 63.872C48.1698 63.816 48.0738 63.774 47.9538 63.746C47.8378 63.718 47.7078 63.694 47.5638 63.674C47.4198 63.65 47.2758 63.622 47.1318 63.59C46.9878 63.554 46.8558 63.506 46.7358 63.446C46.6158 63.382 46.5198 63.296 46.4478 63.188C46.3758 63.076 46.3398 62.928 46.3398 62.744C46.3398 62.552 46.3938 62.384 46.5018 62.24C46.6098 62.096 46.7618 61.986 46.9578 61.91C47.1578 61.83 47.3938 61.79 47.6658 61.79C47.8738 61.79 48.0838 61.816 48.2958 61.868C48.5118 61.916 48.6878 61.986 48.8238 62.078L48.5778 62.534C48.4338 62.438 48.2838 62.372 48.1278 62.336C47.9718 62.3 47.8158 62.282 47.6598 62.282C47.4078 62.282 47.2198 62.324 47.0958 62.408C46.9718 62.488 46.9098 62.592 46.9098 62.72C46.9098 62.828 46.9458 62.912 47.0178 62.972C47.0938 63.028 47.1898 63.072 47.3058 63.104C47.4258 63.136 47.5578 63.164 47.7018 63.188C47.8458 63.208 47.9898 63.236 48.1338 63.272C48.2778 63.304 48.4078 63.35 48.5238 63.41C48.6438 63.47 48.7398 63.554 48.8118 63.662C48.8878 63.77 48.9258 63.914 48.9258 64.094C48.9258 64.286 48.8698 64.452 48.7578 64.592C48.6458 64.732 48.4878 64.842 48.2838 64.922C48.0798 64.998 47.8358 65.036 47.5518 65.036ZM50.7376 65.036C50.4176 65.036 50.1696 64.95 49.9936 64.778C49.8176 64.606 49.7296 64.36 49.7296 64.04V61.124H50.3056V64.016C50.3056 64.188 50.3476 64.32 50.4316 64.412C50.5196 64.504 50.6436 64.55 50.8036 64.55C50.9836 64.55 51.1336 64.5 51.2536 64.4L51.4336 64.814C51.3456 64.89 51.2396 64.946 51.1156 64.982C50.9956 65.018 50.8696 65.036 50.7376 65.036ZM49.1896 62.294V61.82H51.2176V62.294H49.1896ZM52.13 65V61.82H52.682V62.684L52.628 62.468C52.716 62.248 52.864 62.08 53.072 61.964C53.28 61.848 53.536 61.79 53.84 61.79V62.348C53.816 62.344 53.792 62.342 53.768 62.342C53.748 62.342 53.728 62.342 53.708 62.342C53.4 62.342 53.156 62.434 52.976 62.618C52.796 62.802 52.706 63.068 52.706 63.416V65H52.13ZM55.9289 65.036C55.6569 65.036 55.4169 64.986 55.2089 64.886C55.0049 64.786 54.8449 64.634 54.7289 64.43C54.6169 64.222 54.5609 63.962 54.5609 63.65V61.82H55.1369V63.584C55.1369 63.896 55.2109 64.13 55.3589 64.286C55.5109 64.442 55.7229 64.52 55.9949 64.52C56.1949 64.52 56.3689 64.48 56.5169 64.4C56.6649 64.316 56.7789 64.196 56.8589 64.04C56.9389 63.88 56.9789 63.688 56.9789 63.464V61.82H57.5549V65H57.0089V64.142L57.0989 64.37C56.9949 64.582 56.8389 64.746 56.6309 64.862C56.4229 64.978 56.1889 65.036 55.9289 65.036ZM60.0375 65.036C59.7135 65.036 59.4235 64.966 59.1675 64.826C58.9155 64.686 58.7175 64.494 58.5735 64.25C58.4295 64.006 58.3575 63.726 58.3575 63.41C58.3575 63.094 58.4295 62.814 58.5735 62.57C58.7175 62.326 58.9155 62.136 59.1675 62C59.4235 61.86 59.7135 61.79 60.0375 61.79C60.3255 61.79 60.5815 61.848 60.8055 61.964C61.0335 62.076 61.2095 62.244 61.3335 62.468L60.8955 62.75C60.7915 62.594 60.6635 62.48 60.5115 62.408C60.3635 62.332 60.2035 62.294 60.0315 62.294C59.8235 62.294 59.6375 62.34 59.4735 62.432C59.3095 62.524 59.1795 62.654 59.0835 62.822C58.9875 62.986 58.9395 63.182 58.9395 63.41C58.9395 63.638 58.9875 63.836 59.0835 64.004C59.1795 64.172 59.3095 64.302 59.4735 64.394C59.6375 64.486 59.8235 64.532 60.0315 64.532C60.2035 64.532 60.3635 64.496 60.5115 64.424C60.6635 64.348 60.7915 64.232 60.8955 64.076L61.3335 64.352C61.2095 64.572 61.0335 64.742 60.8055 64.862C60.5815 64.978 60.3255 65.036 60.0375 65.036ZM63.2122 65.036C62.8922 65.036 62.6442 64.95 62.4682 64.778C62.2922 64.606 62.2042 64.36 62.2042 64.04V61.124H62.7802V64.016C62.7802 64.188 62.8222 64.32 62.9062 64.412C62.9942 64.504 63.1182 64.55 63.2782 64.55C63.4582 64.55 63.6082 64.5 63.7282 64.4L63.9082 64.814C63.8202 64.89 63.7142 64.946 63.5902 64.982C63.4702 65.018 63.3442 65.036 63.2122 65.036ZM61.6642 62.294V61.82H63.6922V62.294H61.6642ZM64.6046 65V61.82H65.1806V65H64.6046ZM64.8926 61.208C64.7806 61.208 64.6866 61.172 64.6106 61.1C64.5386 61.028 64.5026 60.94 64.5026 60.836C64.5026 60.728 64.5386 60.638 64.6106 60.566C64.6866 60.494 64.7806 60.458 64.8926 60.458C65.0046 60.458 65.0966 60.494 65.1686 60.566C65.2446 60.634 65.2826 60.72 65.2826 60.824C65.2826 60.932 65.2466 61.024 65.1746 61.1C65.1026 61.172 65.0086 61.208 64.8926 61.208ZM67.6424 65.036C67.3224 65.036 67.0384 64.966 66.7904 64.826C66.5424 64.686 66.3464 64.494 66.2024 64.25C66.0584 64.002 65.9864 63.722 65.9864 63.41C65.9864 63.094 66.0584 62.814 66.2024 62.57C66.3464 62.326 66.5424 62.136 66.7904 62C67.0384 61.86 67.3224 61.79 67.6424 61.79C67.9584 61.79 68.2404 61.86 68.4884 62C68.7404 62.136 68.9364 62.326 69.0764 62.57C69.2204 62.81 69.2924 63.09 69.2924 63.41C69.2924 63.726 69.2204 64.006 69.0764 64.25C68.9364 64.494 68.7404 64.686 68.4884 64.826C68.2404 64.966 67.9584 65.036 67.6424 65.036ZM67.6424 64.532C67.8464 64.532 68.0284 64.486 68.1884 64.394C68.3524 64.302 68.4804 64.172 68.5724 64.004C68.6644 63.832 68.7104 63.634 68.7104 63.41C68.7104 63.182 68.6644 62.986 68.5724 62.822C68.4804 62.654 68.3524 62.524 68.1884 62.432C68.0284 62.34 67.8464 62.294 67.6424 62.294C67.4384 62.294 67.2564 62.34 67.0964 62.432C66.9364 62.524 66.8084 62.654 66.7124 62.822C66.6164 62.986 66.5684 63.182 66.5684 63.41C66.5684 63.634 66.6164 63.832 66.7124 64.004C66.8084 64.172 66.9364 64.302 67.0964 64.394C67.2564 64.486 67.4384 64.532 67.6424 64.532ZM71.787 61.79C72.047 61.79 72.275 61.84 72.471 61.94C72.671 62.04 72.827 62.192 72.939 62.396C73.051 62.6 73.107 62.858 73.107 63.17V65H72.531V63.236C72.531 62.928 72.455 62.696 72.303 62.54C72.155 62.384 71.945 62.306 71.673 62.306C71.469 62.306 71.291 62.346 71.139 62.426C70.987 62.506 70.869 62.624 70.785 62.78C70.705 62.936 70.665 63.13 70.665 63.362V65H70.089V61.82H70.641V62.678L70.551 62.45C70.655 62.242 70.815 62.08 71.031 61.964C71.247 61.848 71.499 61.79 71.787 61.79ZM75.085 65.036C74.821 65.036 74.569 65 74.329 64.928C74.093 64.856 73.907 64.768 73.771 64.664L74.011 64.208C74.147 64.3 74.315 64.378 74.515 64.442C74.715 64.506 74.919 64.538 75.127 64.538C75.395 64.538 75.587 64.5 75.703 64.424C75.823 64.348 75.883 64.242 75.883 64.106C75.883 64.006 75.847 63.928 75.775 63.872C75.703 63.816 75.607 63.774 75.487 63.746C75.371 63.718 75.241 63.694 75.097 63.674C74.953 63.65 74.809 63.622 74.665 63.59C74.521 63.554 74.389 63.506 74.269 63.446C74.149 63.382 74.053 63.296 73.981 63.188C73.909 63.076 73.873 62.928 73.873 62.744C73.873 62.552 73.927 62.384 74.035 62.24C74.143 62.096 74.295 61.986 74.491 61.91C74.691 61.83 74.927 61.79 75.199 61.79C75.407 61.79 75.617 61.816 75.829 61.868C76.045 61.916 76.221 61.986 76.357 62.078L76.111 62.534C75.967 62.438 75.817 62.372 75.661 62.336C75.505 62.3 75.349 62.282 75.193 62.282C74.941 62.282 74.753 62.324 74.629 62.408C74.505 62.488 74.443 62.592 74.443 62.72C74.443 62.828 74.479 62.912 74.551 62.972C74.627 63.028 74.723 63.072 74.839 63.104C74.959 63.136 75.091 63.164 75.235 63.188C75.379 63.208 75.523 63.236 75.667 63.272C75.811 63.304 75.941 63.35 76.057 63.41C76.177 63.47 76.273 63.554 76.345 63.662C76.421 63.77 76.459 63.914 76.459 64.094C76.459 64.286 76.403 64.452 76.291 64.592C76.179 64.732 76.021 64.842 75.817 64.922C75.613 64.998 75.369 65.036 75.085 65.036Z" fill="#439C91"/>
</svg>
