<svg width="196" height="117" viewBox="0 0 196 117" fill="none" xmlns="http://www.w3.org/2000/svg">
<path d="M81 62V60L87 68V70L81 62Z" fill="white"/>
<path d="M80 78H78V55H80V58V78Z" fill="white"/>
<path d="M107 78H105V55H107L114 65V68L107 58V78Z" fill="white"/>
<path d="M116 78H118V55H116L109 65V68L116 58V78Z" fill="white"/>
<path d="M90 55H88V78H90V55Z" fill="white"/>
<path d="M99 55H101V78H99H93V76H99V55Z" fill="white"/>
<path d="M99 78H101V55H99H93V57H99V78Z" fill="white"/>
<path d="M99 67H98H96V66H97.5H99V67Z" fill="white"/>
<path d="M47.7826 78H43L98 23L153 78H148.217L98 28.314L47.7826 78Z" fill="white"/>
<path d="M80 52H78L98 32L118 52H116L98 34L80 52Z" fill="#439C91"/>
<path d="M78 52L80 51H116L118 52H78Z" fill="#439C91"/>
<path d="M96.6552 42H95V43.7755H96.6552V42Z" fill="white"/>
<path d="M96.6552 44.959H95V46.7345H96.6552V44.959Z" fill="white"/>
<path d="M99.9638 42H98.3086V43.7755H99.9638V42Z" fill="white"/>
<path d="M99.9638 44.959H98.3086V46.7345H99.9638V44.959Z" fill="white"/>
<path d="M78 36V43L80 41V34L78 36Z" fill="#439C91"/>
<path d="M81.5085 87.0368C81.1925 87.0368 80.9005 86.9848 80.6325 86.8808C80.3645 86.7728 80.1325 86.6228 79.9365 86.4308C79.7405 86.2388 79.5865 86.0128 79.4745 85.7528C79.3665 85.4928 79.3125 85.2088 79.3125 84.9008C79.3125 84.5928 79.3665 84.3088 79.4745 84.0488C79.5865 83.7888 79.7405 83.5628 79.9365 83.3708C80.1365 83.1788 80.3705 83.0308 80.6385 82.9268C80.9065 82.8188 81.1985 82.7648 81.5145 82.7648C81.8185 82.7648 82.1045 82.8168 82.3725 82.9208C82.6405 83.0208 82.8665 83.1728 83.0505 83.3768L82.7685 83.6588C82.5965 83.4828 82.4065 83.3568 82.1985 83.2808C81.9905 83.2008 81.7665 83.1608 81.5265 83.1608C81.2745 83.1608 81.0405 83.2048 80.8245 83.2928C80.6085 83.3768 80.4205 83.4988 80.2605 83.6588C80.1005 83.8148 79.9745 83.9988 79.8825 84.2108C79.7945 84.4188 79.7505 84.6488 79.7505 84.9008C79.7505 85.1528 79.7945 85.3848 79.8825 85.5968C79.9745 85.8048 80.1005 85.9888 80.2605 86.1488C80.4205 86.3048 80.6085 86.4268 80.8245 86.5148C81.0405 86.5988 81.2745 86.6408 81.5265 86.6408C81.7665 86.6408 81.9905 86.6008 82.1985 86.5208C82.4065 86.4408 82.5965 86.3128 82.7685 86.1368L83.0505 86.4188C82.8665 86.6228 82.6405 86.7768 82.3725 86.8808C82.1045 86.9848 81.8165 87.0368 81.5085 87.0368ZM85.0504 87.0308C84.7464 87.0308 84.4724 86.9628 84.2284 86.8268C83.9884 86.6868 83.7984 86.4968 83.6584 86.2568C83.5184 86.0128 83.4484 85.7348 83.4484 85.4228C83.4484 85.1068 83.5184 84.8288 83.6584 84.5888C83.7984 84.3488 83.9884 84.1608 84.2284 84.0248C84.4684 83.8888 84.7424 83.8208 85.0504 83.8208C85.3624 83.8208 85.6384 83.8888 85.8784 84.0248C86.1224 84.1608 86.3124 84.3488 86.4484 84.5888C86.5884 84.8288 86.6584 85.1068 86.6584 85.4228C86.6584 85.7348 86.5884 86.0128 86.4484 86.2568C86.3124 86.4968 86.1224 86.6868 85.8784 86.8268C85.6344 86.9628 85.3584 87.0308 85.0504 87.0308ZM85.0504 86.6528C85.2784 86.6528 85.4804 86.6028 85.6564 86.5028C85.8324 86.3988 85.9704 86.2548 86.0704 86.0708C86.1744 85.8828 86.2264 85.6668 86.2264 85.4228C86.2264 85.1748 86.1744 84.9588 86.0704 84.7748C85.9704 84.5908 85.8324 84.4488 85.6564 84.3488C85.4804 84.2448 85.2804 84.1928 85.0564 84.1928C84.8324 84.1928 84.6324 84.2448 84.4564 84.3488C84.2804 84.4488 84.1404 84.5908 84.0364 84.7748C83.9324 84.9588 83.8804 85.1748 83.8804 85.4228C83.8804 85.6668 83.9324 85.8828 84.0364 86.0708C84.1404 86.2548 84.2804 86.3988 84.4564 86.5028C84.6324 86.6028 84.8304 86.6528 85.0504 86.6528ZM89.1361 83.8208C89.3921 83.8208 89.6161 83.8708 89.8081 83.9708C90.0041 84.0668 90.1561 84.2148 90.2641 84.4148C90.3761 84.6148 90.4321 84.8668 90.4321 85.1708V87.0008H90.0061V85.2128C90.0061 84.8808 89.9221 84.6308 89.7541 84.4628C89.5901 84.2908 89.3581 84.2048 89.0581 84.2048C88.8341 84.2048 88.6381 84.2508 88.4701 84.3428C88.3061 84.4308 88.1781 84.5608 88.0861 84.7328C87.9981 84.9008 87.9541 85.1048 87.9541 85.3448V87.0008H87.5281V83.8508H87.9361V84.7148L87.8701 84.5528C87.9701 84.3248 88.1301 84.1468 88.3501 84.0188C88.5701 83.8868 88.8321 83.8208 89.1361 83.8208ZM92.4288 87.0308C92.1688 87.0308 91.9228 86.9948 91.6908 86.9228C91.4588 86.8468 91.2768 86.7528 91.1448 86.6408L91.3368 86.3048C91.4648 86.4008 91.6288 86.4848 91.8288 86.5568C92.0288 86.6248 92.2388 86.6588 92.4588 86.6588C92.7588 86.6588 92.9748 86.6128 93.1068 86.5208C93.2388 86.4248 93.3048 86.2988 93.3048 86.1428C93.3048 86.0268 93.2668 85.9368 93.1908 85.8728C93.1188 85.8048 93.0228 85.7548 92.9028 85.7228C92.7828 85.6868 92.6488 85.6568 92.5008 85.6328C92.3528 85.6088 92.2048 85.5808 92.0568 85.5488C91.9128 85.5168 91.7808 85.4708 91.6608 85.4108C91.5408 85.3468 91.4428 85.2608 91.3668 85.1528C91.2948 85.0448 91.2588 84.9008 91.2588 84.7208C91.2588 84.5488 91.3068 84.3948 91.4028 84.2588C91.4988 84.1228 91.6388 84.0168 91.8228 83.9408C92.0108 83.8608 92.2388 83.8208 92.5068 83.8208C92.7108 83.8208 92.9148 83.8488 93.1188 83.9048C93.3228 83.9568 93.4908 84.0268 93.6228 84.1148L93.4368 84.4568C93.2968 84.3608 93.1468 84.2928 92.9868 84.2528C92.8268 84.2088 92.6668 84.1868 92.5068 84.1868C92.2228 84.1868 92.0128 84.2368 91.8768 84.3368C91.7448 84.4328 91.6788 84.5568 91.6788 84.7088C91.6788 84.8288 91.7148 84.9228 91.7868 84.9908C91.8628 85.0588 91.9608 85.1128 92.0808 85.1528C92.2048 85.1888 92.3388 85.2188 92.4828 85.2428C92.6308 85.2668 92.7768 85.2968 92.9208 85.3328C93.0688 85.3648 93.2028 85.4108 93.3228 85.4708C93.4468 85.5268 93.5448 85.6088 93.6168 85.7168C93.6928 85.8208 93.7308 85.9588 93.7308 86.1308C93.7308 86.3148 93.6788 86.4748 93.5748 86.6108C93.4748 86.7428 93.3268 86.8468 93.1308 86.9228C92.9388 86.9948 92.7048 87.0308 92.4288 87.0308ZM95.5085 87.0308C95.2125 87.0308 94.9845 86.9508 94.8245 86.7908C94.6645 86.6308 94.5845 86.4048 94.5845 86.1128V83.1548H95.0105V86.0888C95.0105 86.2728 95.0565 86.4148 95.1485 86.5148C95.2445 86.6148 95.3805 86.6648 95.5565 86.6648C95.7445 86.6648 95.9005 86.6108 96.0245 86.5028L96.1745 86.8088C96.0905 86.8848 95.9885 86.9408 95.8685 86.9768C95.7525 87.0128 95.6325 87.0308 95.5085 87.0308ZM94.0205 84.2048V83.8508H95.9705V84.2048H94.0205ZM96.95 87.0008V83.8508H97.358V84.7088L97.316 84.5588C97.404 84.3188 97.552 84.1368 97.76 84.0128C97.968 83.8848 98.226 83.8208 98.534 83.8208V84.2348C98.518 84.2348 98.502 84.2348 98.486 84.2348C98.47 84.2308 98.454 84.2288 98.438 84.2288C98.106 84.2288 97.846 84.3308 97.658 84.5348C97.47 84.7348 97.376 85.0208 97.376 85.3928V87.0008H96.95ZM100.661 87.0308C100.393 87.0308 100.159 86.9808 99.9582 86.8808C99.7582 86.7808 99.6022 86.6308 99.4902 86.4308C99.3822 86.2308 99.3282 85.9808 99.3282 85.6808V83.8508H99.7542V85.6328C99.7542 85.9688 99.8362 86.2228 100 86.3948C100.169 86.5628 100.403 86.6468 100.703 86.6468C100.923 86.6468 101.113 86.6028 101.273 86.5148C101.437 86.4228 101.561 86.2908 101.645 86.1188C101.733 85.9468 101.777 85.7408 101.777 85.5008V83.8508H102.203V87.0008H101.795V86.1368L101.861 86.2928C101.761 86.5248 101.605 86.7068 101.393 86.8388C101.185 86.9668 100.941 87.0308 100.661 87.0308ZM104.698 87.0308C104.386 87.0308 104.106 86.9628 103.858 86.8268C103.614 86.6868 103.422 86.4968 103.282 86.2568C103.142 86.0128 103.072 85.7348 103.072 85.4228C103.072 85.1068 103.142 84.8288 103.282 84.5888C103.422 84.3488 103.614 84.1608 103.858 84.0248C104.106 83.8888 104.386 83.8208 104.698 83.8208C104.966 83.8208 105.208 83.8728 105.424 83.9768C105.64 84.0808 105.81 84.2368 105.934 84.4448L105.616 84.6608C105.508 84.5008 105.374 84.3828 105.214 84.3068C105.054 84.2308 104.88 84.1928 104.692 84.1928C104.468 84.1928 104.266 84.2448 104.086 84.3488C103.906 84.4488 103.764 84.5908 103.66 84.7748C103.556 84.9588 103.504 85.1748 103.504 85.4228C103.504 85.6708 103.556 85.8868 103.66 86.0708C103.764 86.2548 103.906 86.3988 104.086 86.5028C104.266 86.6028 104.468 86.6528 104.692 86.6528C104.88 86.6528 105.054 86.6148 105.214 86.5388C105.374 86.4628 105.508 86.3468 105.616 86.1908L105.934 86.4068C105.81 86.6108 105.64 86.7668 105.424 86.8748C105.208 86.9788 104.966 87.0308 104.698 87.0308ZM107.802 87.0308C107.506 87.0308 107.278 86.9508 107.118 86.7908C106.958 86.6308 106.878 86.4048 106.878 86.1128V83.1548H107.304V86.0888C107.304 86.2728 107.35 86.4148 107.442 86.5148C107.538 86.6148 107.674 86.6648 107.85 86.6648C108.038 86.6648 108.194 86.6108 108.318 86.5028L108.468 86.8088C108.384 86.8848 108.282 86.9408 108.162 86.9768C108.046 87.0128 107.926 87.0308 107.802 87.0308ZM106.314 84.2048V83.8508H108.264V84.2048H106.314ZM109.243 87.0008V83.8508H109.669V87.0008H109.243ZM109.459 83.1548C109.371 83.1548 109.297 83.1248 109.237 83.0648C109.177 83.0048 109.147 82.9328 109.147 82.8488C109.147 82.7648 109.177 82.6948 109.237 82.6388C109.297 82.5788 109.371 82.5488 109.459 82.5488C109.547 82.5488 109.621 82.5768 109.681 82.6328C109.741 82.6888 109.771 82.7588 109.771 82.8428C109.771 82.9308 109.741 83.0048 109.681 83.0648C109.625 83.1248 109.551 83.1548 109.459 83.1548ZM112.139 87.0308C111.835 87.0308 111.561 86.9628 111.317 86.8268C111.077 86.6868 110.887 86.4968 110.747 86.2568C110.607 86.0128 110.537 85.7348 110.537 85.4228C110.537 85.1068 110.607 84.8288 110.747 84.5888C110.887 84.3488 111.077 84.1608 111.317 84.0248C111.557 83.8888 111.831 83.8208 112.139 83.8208C112.451 83.8208 112.727 83.8888 112.967 84.0248C113.211 84.1608 113.401 84.3488 113.537 84.5888C113.677 84.8288 113.747 85.1068 113.747 85.4228C113.747 85.7348 113.677 86.0128 113.537 86.2568C113.401 86.4968 113.211 86.6868 112.967 86.8268C112.723 86.9628 112.447 87.0308 112.139 87.0308ZM112.139 86.6528C112.367 86.6528 112.569 86.6028 112.745 86.5028C112.921 86.3988 113.059 86.2548 113.159 86.0708C113.263 85.8828 113.315 85.6668 113.315 85.4228C113.315 85.1748 113.263 84.9588 113.159 84.7748C113.059 84.5908 112.921 84.4488 112.745 84.3488C112.569 84.2448 112.369 84.1928 112.145 84.1928C111.921 84.1928 111.721 84.2448 111.545 84.3488C111.369 84.4488 111.229 84.5908 111.125 84.7748C111.021 84.9588 110.969 85.1748 110.969 85.4228C110.969 85.6668 111.021 85.8828 111.125 86.0708C111.229 86.2548 111.369 86.3988 111.545 86.5028C111.721 86.6028 111.919 86.6528 112.139 86.6528ZM116.224 83.8208C116.48 83.8208 116.704 83.8708 116.896 83.9708C117.092 84.0668 117.244 84.2148 117.352 84.4148C117.464 84.6148 117.52 84.8668 117.52 85.1708V87.0008H117.094V85.2128C117.094 84.8808 117.01 84.6308 116.842 84.4628C116.678 84.2908 116.446 84.2048 116.146 84.2048C115.922 84.2048 115.726 84.2508 115.558 84.3428C115.394 84.4308 115.266 84.5608 115.174 84.7328C115.086 84.9008 115.042 85.1048 115.042 85.3448V87.0008H114.616V83.8508H115.024V84.7148L114.958 84.5528C115.058 84.3248 115.218 84.1468 115.438 84.0188C115.657 83.8868 115.92 83.8208 116.224 83.8208Z" fill="#439C91"/>
</svg>
